<?xml version="1.0" encoding="iso-8859-1"?>
<!-- Uploaded to: SVG Repo, www.svgrepo.com, Generator: SVG Repo Mixer Tools -->
<svg height="800px" width="800px" version="1.1" id="Layer_1" xmlns="http://www.w3.org/2000/svg" xmlns:xlink="http://www.w3.org/1999/xlink" 
	 viewBox="0 0 501.995 501.995" xml:space="preserve">
<g>
	<path style="fill:#EBD2B4;" d="M146.893,422.97c27.783,8.231,56.941,10.77,85.729,7.467l151.139-17.344
		c8.956-1.425,18.081-1.421,27.036,0.012l47.257,7.561c15.875,2.538,31.402-8.27,33.943-24.147v-40.84
		c0-14.861-10.7-25.878-27.138-29.113l-70.498-10.088c-10.391-0.586-20.81-0.457-31.184,0.384l-152.449,19.45
		c-16.056,0.86-28.373,14.573-27.513,30.628c0.153,2.862,0.718,5.603,1.628,8.174L47.688,332.858
		c-15.366-4.733-31.66,3.884-36.394,19.25s3.884,31.659,19.25,36.394L146.893,422.97z"/>
	<g>
		<path style="fill:#FF2E3D;" d="M323.628,210.101c0,40.114-32.518,72.632-72.632,72.632s-72.632-32.518-72.632-72.632
			s72.632-139.965,72.632-139.965S323.628,169.987,323.628,210.101z"/>
		<g>
			<path d="M466.789,316.754c-0.171-0.033-0.342-0.063-0.515-0.087l-70.498-10.088c-0.283-0.04-0.568-0.069-0.854-0.084
				c-10.809-0.61-21.762-0.476-32.555,0.4c-0.152,0.012-0.305,0.028-0.457,0.048l-152.111,19.406
				c-19.198,1.22-34.375,16.2-36.398,34.776L50.632,323.301c-20.61-6.35-42.545,5.253-48.894,25.863
				c-6.35,20.61,5.252,42.544,25.862,48.895c0.035,0.011,0.069,0.021,0.104,0.031l116.349,34.468
				c20.898,6.191,42.279,9.3,63.839,9.3c8.601,0,17.231-0.495,25.87-1.486l151.139-17.344c0.144-0.017,0.288-0.037,0.431-0.059
				c7.924-1.261,15.961-1.258,23.884,0.01l47.258,7.561c2.141,0.342,4.267,0.508,6.368,0.508
				c19.113-0.002,35.951-13.72,39.028-32.95c0.083-0.522,0.125-1.051,0.125-1.58v-40.84
				C501.996,336.242,488.176,320.963,466.789,316.754z M481.996,395.636c-1.988,9.907-12.06,16.798-22.363,15.156l-47.257-7.561
				c-9.941-1.59-20.022-1.605-29.967-0.048l-150.927,17.319c-27.604,3.168-55.108,0.771-81.748-7.12l-116.29-34.451
				c-10.042-3.122-15.69-13.822-12.592-23.879c1.502-4.878,4.815-8.88,9.328-11.267c4.512-2.387,9.685-2.874,14.564-1.371
				l133.085,41.002c6.634,12.243,19.58,20.492,34.373,20.492c0.702,0,1.407-0.019,2.116-0.057c0.244-0.013,0.486-0.035,0.729-0.066
				l61.135-7.774c5.479-0.697,9.355-5.703,8.658-11.182c-0.697-5.479-5.701-9.362-11.182-8.658l-60.735,7.724
				c-10.273,0.363-18.886-7.409-19.723-17.518c-0.266-5.088,1.461-9.977,4.867-13.768c3.411-3.798,8.098-6.04,13.195-6.313
				c0.245-0.013,0.488-0.035,0.731-0.066l152.219-19.42c9.669-0.774,19.478-0.899,29.162-0.373l69.794,9.987
				c11.795,2.399,18.828,9.583,18.828,19.253L481.996,395.636L481.996,395.636z"/>
			<path d="M314.417,370.99l-13.586,1.728c-5.479,0.696-9.355,5.703-8.659,11.181c0.642,5.051,4.946,8.74,9.907,8.74
				c0.42,0,0.846-0.026,1.274-0.081l13.586-1.728c5.479-0.696,9.355-5.703,8.659-11.181
				C324.901,374.169,319.889,370.287,314.417,370.99z"/>
			<path d="M250.996,292.733c45.563,0,82.632-37.068,82.632-82.632c0-42.149-66.915-135.358-74.545-145.847
				c-1.882-2.587-4.888-4.118-8.087-4.118s-6.205,1.531-8.087,4.118c-7.63,10.489-74.545,103.698-74.545,145.847
				C168.364,255.664,205.432,292.733,250.996,292.733z M250.997,87.438c22.86,33.006,62.631,95.973,62.631,122.663
				c0,34.535-28.097,62.632-62.632,62.632s-62.632-28.097-62.632-62.632C188.364,183.427,228.137,120.45,250.997,87.438z"/>
			<path d="M249.165,253.805c25.781,0,46.755-20.975,46.755-46.755c0-5.523-4.477-10-10-10s-10,4.477-10,10
				c0,14.753-12.002,26.755-26.755,26.755c-5.523,0-10,4.477-10,10S243.642,253.805,249.165,253.805z"/>
		</g>
	</g>
</g>
</svg>